<svg xmlns="http://www.w3.org/2000/svg" viewBox="0 0 920 420">
  <defs>
    <pattern id="grid" width="32" height="32" patternUnits="userSpaceOnUse"><path d="M32 0H0V32" fill="none" stroke="#1e293b" stroke-width="1"/></pattern>
    <marker id="arrow" markerWidth="10" markerHeight="8" refX="9" refY="4" orient="auto"><path d="M0 0L10 4L0 8Z" fill="#7dd3fc"/></marker>
  </defs>
  <rect width="920" height="420" rx="24" fill="#0f172a"/>
  <rect width="920" height="420" rx="24" fill="url(#grid)" opacity=".7"/>
  <text x="38" y="48" fill="#e2e8f0" font-family="Noto Sans SC, Microsoft YaHei, sans-serif" font-size="24" font-weight="700">AI 学习助手 · 学习闭环</text>
  <g font-family="Noto Sans SC, Microsoft YaHei, sans-serif" font-size="16" font-weight="700" text-anchor="middle">
    <rect x="70" y="128" width="150" height="72" rx="16" fill="#082f49" stroke="#38bdf8"/>
    <text x="145" y="158" fill="#f8fafc">提问理解</text><text x="145" y="182" fill="#93c5fd" font-size="13">AI 问答</text>
    <rect x="285" y="128" width="150" height="72" rx="16" fill="#064e3b" stroke="#34d399"/>
    <text x="360" y="158" fill="#f8fafc">练习检测</text><text x="360" y="182" fill="#a7f3d0" font-size="13">AI 出题</text>
    <rect x="500" y="128" width="150" height="72" rx="16" fill="#4c1d95" stroke="#a78bfa"/>
    <text x="575" y="158" fill="#f8fafc">错题沉淀</text><text x="575" y="182" fill="#ddd6fe" font-size="13">错题本</text>
    <rect x="715" y="128" width="150" height="72" rx="16" fill="#78350f" stroke="#fbbf24"/>
    <text x="790" y="158" fill="#f8fafc">复习回看</text><text x="790" y="182" fill="#fde68a" font-size="13">复习中心</text>
    <rect x="285" y="278" width="150" height="72" rx="16" fill="#164e63" stroke="#22d3ee"/>
    <text x="360" y="308" fill="#f8fafc">历史记录</text><text x="360" y="332" fill="#a5f3fc" font-size="13">时间线</text>
    <rect x="500" y="278" width="150" height="72" rx="16" fill="#14532d" stroke="#86efac"/>
    <text x="575" y="308" fill="#f8fafc">结构整理</text><text x="575" y="332" fill="#bbf7d0" font-size="13">思维导图</text>
  </g>
  <g fill="none" stroke="#7dd3fc" stroke-width="2.4" marker-end="url(#arrow)">
    <path d="M220 164H285"/><path d="M435 164H500"/><path d="M650 164H715"/>
    <path d="M790 200C760 286 690 314 650 314"/><path d="M500 314H435"/>
    <path d="M360 278C306 238 208 238 145 200"/>
  </g>
  <text x="460" y="392" fill="#94a3b8" font-family="Noto Sans SC, Microsoft YaHei, sans-serif" font-size="14" text-anchor="middle">从一次问答开始，把知识点持续转化为练习、错题、复习和结构化资料</text>
</svg>
