<svg xmlns="http://www.w3.org/2000/svg" width="1200" height="720" viewBox="0 0 1200 720" role="img" aria-label="图书管理系统：前后端接口契约">
  <defs>
    <linearGradient id="bg" x1="0" y1="0" x2="1" y2="1"><stop offset="0" stop-color="#111827"/><stop offset="1" stop-color="#17324a"/></linearGradient>
    <linearGradient id="soft" x1="0" y1="0" x2="1" y2="1"><stop offset="0" stop-color="#f8fffb" stop-opacity=".96"/><stop offset="1" stop-color="#d9f3e2" stop-opacity=".92"/></linearGradient>
    <filter id="shadow" x="-20%" y="-20%" width="140%" height="140%"><feDropShadow dx="0" dy="18" stdDeviation="16" flood-color="#000" flood-opacity=".22"/></filter>
    <pattern id="grid" width="40" height="40" patternUnits="userSpaceOnUse"><path d="M40 0H0V40" fill="none" stroke="#ffffff" stroke-opacity=".08"/></pattern>
    <marker id="arrow" markerWidth="12" markerHeight="12" refX="10" refY="6" orient="auto"><path d="M2 2 L10 6 L2 10 Z" fill="#94e27d"/></marker>
  </defs>
  <rect width="1200" height="720" rx="36" fill="url(#bg)"/>
  <rect width="1200" height="720" rx="36" fill="url(#grid)"/>
  <text x="70" y="86" fill="#f4fff7" font-family="Microsoft YaHei, Arial, sans-serif" font-size="40" font-weight="900">图书管理系统：前后端接口契约</text>
  <text x="72" y="128" fill="#bdd7df" font-family="Microsoft YaHei, Arial, sans-serif" font-size="21" font-weight="700">管理端页面通过 REST API 连接 Spring Boot 分层服务</text><g filter="url(#shadow)"><rect x="80" y="190" width="320" height="408" rx="28" fill="rgba(237,247,242,.92)" stroke="#fff" stroke-opacity=".68"/>
      <text x="108" y="238" fill="#14313a" font-family="Microsoft YaHei, Arial, sans-serif" font-size="26" font-weight="900">Vue 管理端</text>
      <rect x="108" y="272" width="264" height="52" rx="16" fill="rgba(255,255,255,.58)"/><text x="130" y="306" fill="#5b7480" font-family="Microsoft YaHei, Arial, sans-serif" font-size="20" font-weight="800">登录页</text><rect x="108" y="350" width="264" height="52" rx="16" fill="rgba(255,255,255,.58)"/><text x="130" y="384" fill="#5b7480" font-family="Microsoft YaHei, Arial, sans-serif" font-size="20" font-weight="800">仪表盘</text><rect x="108" y="428" width="264" height="52" rx="16" fill="rgba(255,255,255,.58)"/><text x="130" y="462" fill="#5b7480" font-family="Microsoft YaHei, Arial, sans-serif" font-size="20" font-weight="800">图书列表</text><rect x="108" y="506" width="264" height="52" rx="16" fill="rgba(255,255,255,.58)"/><text x="130" y="540" fill="#5b7480" font-family="Microsoft YaHei, Arial, sans-serif" font-size="20" font-weight="800">借阅管理</text>
    </g><path d="M408 394 C 420 394, 420 394, 432 394" fill="none" stroke="#94e27d" stroke-width="5" stroke-linecap="round" marker-end="url(#arrow)"/><g filter="url(#shadow)"><rect x="440" y="190" width="320" height="408" rx="28" fill="rgba(237,247,242,.92)" stroke="#fff" stroke-opacity=".68"/>
      <text x="468" y="238" fill="#14313a" font-family="Microsoft YaHei, Arial, sans-serif" font-size="26" font-weight="900">REST API</text>
      <rect x="468" y="272" width="264" height="52" rx="16" fill="rgba(255,255,255,.58)"/><text x="490" y="306" fill="#5b7480" font-family="Microsoft YaHei, Arial, sans-serif" font-size="20" font-weight="800">auth</text><rect x="468" y="350" width="264" height="52" rx="16" fill="rgba(255,255,255,.58)"/><text x="490" y="384" fill="#5b7480" font-family="Microsoft YaHei, Arial, sans-serif" font-size="20" font-weight="800">books</text><rect x="468" y="428" width="264" height="52" rx="16" fill="rgba(255,255,255,.58)"/><text x="490" y="462" fill="#5b7480" font-family="Microsoft YaHei, Arial, sans-serif" font-size="20" font-weight="800">borrows</text><rect x="468" y="506" width="264" height="52" rx="16" fill="rgba(255,255,255,.58)"/><text x="490" y="540" fill="#5b7480" font-family="Microsoft YaHei, Arial, sans-serif" font-size="20" font-weight="800">readers</text><rect x="468" y="584" width="264" height="52" rx="16" fill="rgba(255,255,255,.58)"/><text x="490" y="618" fill="#5b7480" font-family="Microsoft YaHei, Arial, sans-serif" font-size="20" font-weight="800">dashboard</text>
    </g><path d="M768 394 C 780 394, 780 394, 792 394" fill="none" stroke="#94e27d" stroke-width="5" stroke-linecap="round" marker-end="url(#arrow)"/><g filter="url(#shadow)"><rect x="800" y="190" width="320" height="408" rx="28" fill="rgba(237,247,242,.92)" stroke="#fff" stroke-opacity=".68"/>
      <text x="828" y="238" fill="#14313a" font-family="Microsoft YaHei, Arial, sans-serif" font-size="26" font-weight="900">后端分层</text>
      <rect x="828" y="272" width="264" height="52" rx="16" fill="rgba(255,255,255,.58)"/><text x="850" y="306" fill="#5b7480" font-family="Microsoft YaHei, Arial, sans-serif" font-size="20" font-weight="800">Controller</text><rect x="828" y="350" width="264" height="52" rx="16" fill="rgba(255,255,255,.58)"/><text x="850" y="384" fill="#5b7480" font-family="Microsoft YaHei, Arial, sans-serif" font-size="20" font-weight="800">Service</text><rect x="828" y="428" width="264" height="52" rx="16" fill="rgba(255,255,255,.58)"/><text x="850" y="462" fill="#5b7480" font-family="Microsoft YaHei, Arial, sans-serif" font-size="20" font-weight="800">Repository</text><rect x="828" y="506" width="264" height="52" rx="16" fill="rgba(255,255,255,.58)"/><text x="850" y="540" fill="#5b7480" font-family="Microsoft YaHei, Arial, sans-serif" font-size="20" font-weight="800">Model / VO</text>
    </g><text x="70" y="665" fill="#a8c8d0" font-family="Microsoft YaHei, Arial, sans-serif" font-size="18">Portfolio README Diagram</text>
</svg>