<svg xmlns="http://www.w3.org/2000/svg" viewBox="0 0 920 420">
  <defs><pattern id="grid" width="32" height="32" patternUnits="userSpaceOnUse"><path d="M32 0H0V32" fill="none" stroke="#1e293b" stroke-width="1"/></pattern><marker id="arrow" markerWidth="10" markerHeight="8" refX="9" refY="4" orient="auto"><path d="M0 0L10 4L0 8Z" fill="#86efac"/></marker></defs>
  <rect width="920" height="420" rx="24" fill="#0f172a"/><rect width="920" height="420" rx="24" fill="url(#grid)" opacity=".7"/>
  <text x="38" y="48" fill="#e2e8f0" font-family="Noto Sans SC, Microsoft YaHei, sans-serif" font-size="24" font-weight="700">图书管理系统 · 前后端分离</text>
  <g font-family="Noto Sans SC, Microsoft YaHei, sans-serif" text-anchor="middle">
    <rect x="70" y="138" width="160" height="82" rx="16" fill="#082f49" stroke="#38bdf8"/><text x="150" y="172" fill="#fff" font-size="16" font-weight="700">Vue 管理端</text><text x="150" y="198" fill="#bae6fd" font-size="13">仪表盘 / 表单 / 列表</text>
    <rect x="310" y="90" width="160" height="68" rx="14" fill="#064e3b" stroke="#34d399"/><text x="390" y="120" fill="#fff" font-size="15" font-weight="700">Controller</text><text x="390" y="142" fill="#a7f3d0" font-size="12">REST API</text>
    <rect x="310" y="188" width="160" height="68" rx="14" fill="#14532d" stroke="#86efac"/><text x="390" y="218" fill="#fff" font-size="15" font-weight="700">Service</text><text x="390" y="240" fill="#bbf7d0" font-size="12">业务规则</text>
    <rect x="310" y="286" width="160" height="68" rx="14" fill="#78350f" stroke="#fbbf24"/><text x="390" y="316" fill="#fff" font-size="15" font-weight="700">Repository</text><text x="390" y="338" fill="#fde68a" font-size="12">数据访问</text>
    <rect x="585" y="138" width="150" height="82" rx="16" fill="#4c1d95" stroke="#a78bfa"/><text x="660" y="172" fill="#fff" font-size="16" font-weight="700">MySQL</text><text x="660" y="198" fill="#ddd6fe" font-size="13">书 / 读者 / 借阅</text>
    <rect x="755" y="138" width="100" height="82" rx="16" fill="#164e63" stroke="#22d3ee"/><text x="805" y="172" fill="#fff" font-size="15" font-weight="700">统计 VO</text><text x="805" y="198" fill="#a5f3fc" font-size="12">图表数据</text>
  </g>
  <g fill="none" stroke="#86efac" stroke-width="2.4" marker-end="url(#arrow)"><path d="M230 179H310"/><path d="M390 158V188"/><path d="M390 256V286"/><path d="M470 320C540 320 548 180 585 180"/><path d="M735 180H755"/></g>
  <text x="460" y="392" fill="#94a3b8" font-family="Noto Sans SC, Microsoft YaHei, sans-serif" font-size="14" text-anchor="middle">前端组件负责操作入口，后端分层处理接口、业务规则和持久化</text>
</svg>
